<svg xmlns="http://www.w3.org/2000/svg" viewBox="0 0 787 121" enable-background="new 0 0 787 121"><path fill="#fff" d="M43.7 1H1.3C.6 1 0 1.6 0 2.3v117.4c0 .7.6 1.3 1.3 1.3h42.5c35.8 0 61.8-25.3 61.8-60.2C105.5 26.2 79.5 1 43.7 1m0 98.7H22.6V22.4h21.2c22.5 0 38.3 16 38.3 38.8-.1 23-15.5 38.5-38.4 38.5zM219.2 1h-22.9c-.4 0-.9.2-1.1.6L164 51.9 133.2 1.6c-.2-.3-.6-.6-1.1-.6h-23.6c-.5 0-.9.3-1.1.7-.2.4-.2.9 0 1.3l45 70.8v45.9c0 .7.6 1.3 1.3 1.3h20.2c.7 0 1.3-.6 1.3-1.3V73.3l45-70.3c.3-.4.3-.9.1-1.3-.2-.4-.7-.7-1.1-.7M339.6 1H320c-.7 0-1.3.6-1.3 1.3v77.4L260 1.5c-.2-.3-.6-.5-1-.5h-18.6c-.7 0-1.3.6-1.3 1.3v117.4c0 .7.6 1.3 1.3 1.3h19.7c.7 0 1.3-.6 1.3-1.3V40l60.5 80.5c.2.3.6.5 1 .5h16.8c.7 0 1.3-.6 1.3-1.3V2.3c-.1-.7-.7-1.3-1.4-1.3"/><path fill="#fff" d="M431.6 1c-.2-.5-.7-.8-1.2-.8h-18.5c-.5 0-1 .3-1.2.8l-50.1 118.3c-.2.4-.1.8.1 1.2.2.4.6.6 1.1.6h20.5c.5 0 1-.3 1.2-.8l11.4-27.6H447l11.2 27.6c.2.5.7.8 1.2.8h21.2c.4 0 .8-.2 1.1-.6.2-.4.3-.8.1-1.2L431.6 1m7 70.8h-35.4l17.6-42.4 17.8 42.4zM614.8 1h-21.3c-.4 0-.8.2-1.1.6l-33.6 53.8-33.6-53.8c-.2-.3-.6-.6-1.1-.6h-21.3c-.7 0-1.3.6-1.3 1.3v117.4c0 .7.6 1.3 1.3 1.3h19.7c.7 0 1.3-.6 1.3-1.3V40.2l33.3 51.4c.2.4.6.6 1.1.6h.6c.4 0 .8-.2 1.1-.6l33.6-51.8v79.9c0 .7.6 1.3 1.3 1.3h20c.7 0 1.3-.6 1.3-1.3V2.3c-.1-.7-.6-1.3-1.3-1.3M669.3 1h-20c-.7 0-1.3.6-1.3 1.3v117.4c0 .7.6 1.3 1.3 1.3h20c.7 0 1.3-.6 1.3-1.3V2.3c0-.7-.6-1.3-1.3-1.3M785 1h-92.4c-.7 0-1.3.6-1.3 1.3v19.1c0 .7.6 1.3 1.3 1.3h34.9v97c0 .7.6 1.3 1.3 1.3H749c.7 0 1.3-.6 1.3-1.3v-97H785c.7 0 1.3-.6 1.3-1.3V2.3c-.1-.7-.6-1.3-1.3-1.3"/></svg>