<?xml version="1.0" encoding="utf-8"?>
<!-- Generator: Adobe Illustrator 18.1.1, SVG Export Plug-In . SVG Version: 6.00 Build 0)  -->
<svg version="1.1" id="Layer_1" xmlns="http://www.w3.org/2000/svg" xmlns:xlink="http://www.w3.org/1999/xlink" x="0px" y="0px"
	 viewBox="0 0 208.3 208" enable-background="new 0 0 208.3 208" xml:space="preserve">
<g>
	<path d="M27.8,0C12.5,0,0,12.5,0,27.8c0,15.3,12.5,27.8,27.8,27.8c15.3,0,27.8-12.5,27.8-27.8C55.5,12.5,43.1,0,27.8,0L27.8,0z
		 M27.8,0"/>
	<path d="M48.6,66.7H6.9c-2,0-3.6,1.6-3.6,3.6v134.1c0,2,1.6,3.6,3.6,3.6h41.7c2,0,3.6-1.6,3.6-3.6V70.3
		C52.2,68.3,50.6,66.7,48.6,66.7L48.6,66.7z M48.6,66.7"/>
	<path d="M155.1,65.1c-15.3,0-28.7,4.6-36.8,12.2v-7c0-2-1.6-3.6-3.6-3.6h-40c-2,0-3.6,1.6-3.6,3.6v134.1c0,2,1.6,3.6,3.6,3.6h41.6
		c2,0,3.6-1.6,3.6-3.6V138c0-19,3.5-30.8,21-30.8c17.2,0,18.5,12.7,18.5,32v65.2c0,2,1.6,3.6,3.6,3.6h41.7c2,0,3.6-1.6,3.6-3.6
		v-73.6C208.3,100.2,202.2,65.1,155.1,65.1L155.1,65.1z M155.1,65.1"/>
</g>
</svg>
