<?xml version="1.0" encoding="utf-8"?>
<!-- Generator: Adobe Illustrator 18.1.1, SVG Export Plug-In . SVG Version: 6.00 Build 0)  -->
<svg version="1.1" id="Layer_1" xmlns="http://www.w3.org/2000/svg" xmlns:xlink="http://www.w3.org/1999/xlink" x="0px" y="0px"
	 viewBox="0 0 385.8 385.8" enable-background="new 0 0 385.8 385.8" xml:space="preserve">
<g>
	<g>
		<path fill="#010101" d="M355.8,174.8l-72.4,72.4c-40,40-104.8,40-144.8,0c-6.3-6.3-11.2-13.3-15.6-20.6l33.7-33.7
			c1.6-1.6,3.6-2.5,5.5-3.6c2.3,8,6.4,15.5,12.6,21.7c20,20,52.5,19.9,72.4,0l72.4-72.4c20-20,20-52.4,0-72.4c-20-20-52.4-20-72.4,0
			L221.5,92c-20.9-8.1-43.4-10.3-65.3-7.1L211,30c40-40,104.8-40,144.8,0C395.8,70,395.8,134.8,355.8,174.8L355.8,174.8z
			 M164.4,293.9l-25.8,25.8c-20,19.9-52.5,19.9-72.4,0c-20-20-20-52.4,0-72.4l72.4-72.4c20-20,52.4-20,72.4,0
			c6.2,6.2,10.3,13.8,12.6,21.7c1.9-1.1,3.9-2,5.5-3.6l33.7-33.6c-4.3-7.3-9.2-14.4-15.6-20.7c-40-40-104.8-40-144.8,0L30,211
			c-40,40-40,104.8,0,144.8c40,40,104.8,40,144.8,0l54.9-54.9C207.8,304.2,185.2,302,164.4,293.9L164.4,293.9z M164.4,293.9"/>
	</g>
</g>
</svg>
